<svg xmlns="http://www.w3.org/2000/svg" width="100" height="100" viewBox="-50 -50 100 100">
  <g fill="none" stroke="#14151c" stroke-width="2.2" stroke-linecap="round" stroke-linejoin="round">
    <g fill="#ff9f43">
      <polygon points="15,-5 32.5,0 15,5"/>
      <polygon points="15,-5 32.5,0 15,5" transform="rotate(45)"/>
      <polygon points="15,-5 32.5,0 15,5" transform="rotate(90)"/>
      <polygon points="15,-5 32.5,0 15,5" transform="rotate(135)"/>
      <polygon points="15,-5 32.5,0 15,5" transform="rotate(180)"/>
      <polygon points="15,-5 32.5,0 15,5" transform="rotate(225)"/>
      <polygon points="15,-5 32.5,0 15,5" transform="rotate(270)"/>
      <polygon points="15,-5 32.5,0 15,5" transform="rotate(315)"/>
    </g>
    <circle cx="0" cy="0" r="19" fill="#ffdd59"/>
    <g fill="#ffb8b8" stroke="none">
      <circle cx="-9" cy="2.5" r="3"/>
      <circle cx="9" cy="2.5" r="3"/>
    </g>
    <g fill="#14151c" stroke="none">
      <circle cx="-5" cy="-2.5" r="2.3"/>
      <circle cx="5" cy="-2.5" r="2.3"/>
    </g>
    <path d="M-2.5 2.5 Q0 5.2 2.5 2.5"/>
  </g>
</svg>
